<svg width="151" height="110" viewBox="0 0 151 110" fill="none" xmlns="http://www.w3.org/2000/svg">
<path d="M74.6237 72C71.0118 72.0046 67.549 73.5468 64.995 76.2884C62.441 79.03 61.0043 82.7471 61 86.6242C60.9957 89.7927 61.9598 92.8752 63.7446 95.3988C63.7446 95.3988 64.1161 95.9239 64.1768 95.9997L74.6237 109.225L85.0756 95.9931C85.1301 95.9226 85.5029 95.3988 85.5029 95.3988L85.5041 95.3948C87.2879 92.8723 88.2516 89.7912 88.2474 86.6242C88.2431 82.7471 86.8064 79.03 84.2524 76.2884C81.6984 73.5468 78.2356 72.0046 74.6237 72ZM74.6237 91.9422C73.6439 91.9422 72.6861 91.6303 71.8714 91.0459C71.0567 90.4616 70.4217 89.631 70.0467 88.6593C69.6718 87.6876 69.5737 86.6183 69.7648 85.5868C69.956 84.5552 70.4278 83.6076 71.1207 82.8639C71.8135 82.1202 72.6962 81.6137 73.6572 81.4085C74.6182 81.2033 75.6143 81.3086 76.5196 81.7111C77.4248 82.1136 78.1985 82.7952 78.7429 83.6698C79.2872 84.5443 79.5778 85.5725 79.5778 86.6242C79.5761 88.0341 79.0537 89.3857 78.125 90.3826C77.1962 91.3795 75.9371 91.9404 74.6237 91.9422Z" fill="#1B213A"/>
<circle cx="74.8151" cy="86.5831" r="6.14026" fill="white"/>
<g filter="url(#filter0_d_523_7881)">
<rect x="12" y="10" width="127" height="48" rx="6" fill="white"/>
</g>
<path d="M52.296 39L55.336 28.328H53.24L51.176 36.552L48.968 28.328H47.48L45.272 36.552L43.192 28.328H41.096L44.152 39H46.152L48.216 31.128L50.296 39H52.296ZM59.3885 39.192C61.8685 39.192 63.3725 37.352 63.3725 35.128C63.3725 32.92 61.8685 31.08 59.3885 31.08C56.9405 31.08 55.4205 32.92 55.4205 35.128C55.4205 37.352 56.9405 39.192 59.3885 39.192ZM59.3885 37.704C57.9645 37.704 57.1645 36.504 57.1645 35.128C57.1645 33.768 57.9645 32.568 59.3885 32.568C60.8285 32.568 61.6285 33.768 61.6285 35.128C61.6285 36.504 60.8285 37.704 59.3885 37.704ZM68.5604 39.192C71.0404 39.192 72.5444 37.352 72.5444 35.128C72.5444 32.92 71.0404 31.08 68.5604 31.08C66.1124 31.08 64.5924 32.92 64.5924 35.128C64.5924 37.352 66.1124 39.192 68.5604 39.192ZM68.5604 37.704C67.1364 37.704 66.3364 36.504 66.3364 35.128C66.3364 33.768 67.1364 32.568 68.5604 32.568C70.0004 32.568 70.8004 33.768 70.8004 35.128C70.8004 36.504 70.0004 37.704 68.5604 37.704ZM81.3643 39V28.328H79.6843V32.344C79.0603 31.528 78.1643 31.08 77.2043 31.08C75.2043 31.08 73.7643 32.648 73.7643 35.144C73.7643 37.688 75.2203 39.192 77.2043 39.192C78.1963 39.192 79.0923 38.712 79.6843 37.944V39H81.3643ZM77.6843 37.704C76.3563 37.704 75.5082 36.632 75.5082 35.144C75.5082 33.64 76.3563 32.568 77.6843 32.568C78.4843 32.568 79.3003 33.032 79.6843 33.608V36.68C79.3003 37.256 78.4843 37.704 77.6843 37.704ZM86.1811 39.192C88.2611 39.192 89.3971 38.152 89.3971 36.792C89.3971 33.72 84.7251 34.744 84.7251 33.368C84.7251 32.824 85.2851 32.424 86.1651 32.424C87.1251 32.424 87.9891 32.824 88.4531 33.352L89.1571 32.168C88.4531 31.544 87.4611 31.08 86.1491 31.08C84.1971 31.08 83.1091 32.168 83.1091 33.432C83.1091 36.392 87.7811 35.304 87.7811 36.824C87.7811 37.432 87.2691 37.864 86.2611 37.864C85.2531 37.864 84.1811 37.336 83.6371 36.776L82.8691 37.992C83.6691 38.776 84.8691 39.192 86.1811 39.192ZM91.92 30.328C92.496 30.328 92.96 29.864 92.96 29.288C92.96 28.712 92.496 28.248 91.92 28.248C91.36 28.248 90.88 28.712 90.88 29.288C90.88 29.864 91.36 30.328 91.92 30.328ZM92.768 39V31.272H91.088V39H92.768ZM102.067 39V28.328H100.387V32.344C99.7634 31.528 98.8674 31.08 97.9074 31.08C95.9074 31.08 94.4674 32.648 94.4674 35.144C94.4674 37.688 95.9234 39.192 97.9074 39.192C98.8994 39.192 99.7954 38.712 100.387 37.944V39H102.067ZM98.3874 37.704C97.0594 37.704 96.2114 36.632 96.2114 35.144C96.2114 33.64 97.0594 32.568 98.3874 32.568C99.1874 32.568 100.003 33.032 100.387 33.608V36.68C100.003 37.256 99.1874 37.704 98.3874 37.704ZM107.812 39.192C109.044 39.192 110.18 38.808 110.948 38.072L110.18 36.968C109.636 37.512 108.74 37.816 107.988 37.816C106.532 37.816 105.652 36.856 105.524 35.688H111.492V35.288C111.492 32.856 110.004 31.08 107.684 31.08C105.396 31.08 103.764 32.888 103.764 35.128C103.764 37.576 105.492 39.192 107.812 39.192ZM109.86 34.504H105.508C105.588 33.56 106.244 32.456 107.684 32.456C109.204 32.456 109.828 33.592 109.86 34.504Z" fill="black"/>
<g filter="url(#filter1_d_523_7881)">
<path d="M74.5 70L65 56H91L74.5 70Z" fill="white"/>
</g>
<defs>
<filter id="filter0_d_523_7881" x="0" y="0" width="151" height="72" filterUnits="userSpaceOnUse" color-interpolation-filters="sRGB">
<feFlood flood-opacity="0" result="BackgroundImageFix"/>
<feColorMatrix in="SourceAlpha" type="matrix" values="0 0 0 0 0 0 0 0 0 0 0 0 0 0 0 0 0 0 127 0" result="hardAlpha"/>
<feOffset dy="2"/>
<feGaussianBlur stdDeviation="6"/>
<feComposite in2="hardAlpha" operator="out"/>
<feColorMatrix type="matrix" values="0 0 0 0 0 0 0 0 0 0 0 0 0 0 0 0 0 0 0.25 0"/>
<feBlend mode="normal" in2="BackgroundImageFix" result="effect1_dropShadow_523_7881"/>
<feBlend mode="normal" in="SourceGraphic" in2="effect1_dropShadow_523_7881" result="shape"/>
</filter>
<filter id="filter1_d_523_7881" x="61" y="56" width="34" height="22" filterUnits="userSpaceOnUse" color-interpolation-filters="sRGB">
<feFlood flood-opacity="0" result="BackgroundImageFix"/>
<feColorMatrix in="SourceAlpha" type="matrix" values="0 0 0 0 0 0 0 0 0 0 0 0 0 0 0 0 0 0 127 0" result="hardAlpha"/>
<feOffset dy="4"/>
<feGaussianBlur stdDeviation="2"/>
<feComposite in2="hardAlpha" operator="out"/>
<feColorMatrix type="matrix" values="0 0 0 0 0 0 0 0 0 0 0 0 0 0 0 0 0 0 0.12 0"/>
<feBlend mode="normal" in2="BackgroundImageFix" result="effect1_dropShadow_523_7881"/>
<feBlend mode="normal" in="SourceGraphic" in2="effect1_dropShadow_523_7881" result="shape"/>
</filter>
</defs>
</svg>
