<svg width="151" height="110" viewBox="0 0 151 110" fill="none" xmlns="http://www.w3.org/2000/svg">
<path d="M74.6237 72C71.0118 72.0046 67.549 73.5468 64.995 76.2884C62.441 79.03 61.0043 82.7471 61 86.6242C60.9957 89.7927 61.9598 92.8752 63.7446 95.3988C63.7446 95.3988 64.1161 95.9239 64.1768 95.9997L74.6237 109.225L85.0756 95.9931C85.1301 95.9226 85.5029 95.3988 85.5029 95.3988L85.5041 95.3948C87.2879 92.8723 88.2516 89.7912 88.2474 86.6242C88.2431 82.7471 86.8064 79.03 84.2524 76.2884C81.6984 73.5468 78.2356 72.0046 74.6237 72ZM74.6237 91.9422C73.6439 91.9422 72.6861 91.6303 71.8714 91.0459C71.0567 90.4616 70.4217 89.631 70.0467 88.6593C69.6718 87.6876 69.5737 86.6183 69.7648 85.5868C69.956 84.5552 70.4278 83.6076 71.1207 82.8639C71.8135 82.1202 72.6962 81.6137 73.6572 81.4085C74.6182 81.2033 75.6143 81.3086 76.5196 81.7111C77.4248 82.1136 78.1985 82.7952 78.7429 83.6698C79.2872 84.5443 79.5778 85.5725 79.5778 86.6242C79.5761 88.0341 79.0537 89.3857 78.125 90.3826C77.1962 91.3795 75.9371 91.9404 74.6237 91.9422Z" fill="#1B213A"/>
<circle cx="74.8151" cy="86.5831" r="6.14026" fill="white"/>
<g filter="url(#filter0_d_523_7851)">
<rect x="12" y="10" width="127" height="48" rx="6" fill="white"/>
</g>
<path d="M57.432 39V28.328H55.56V32.696H50.008V28.328H48.136V39H50.008V34.344H55.56V39H57.432ZM60.4825 30.328C61.0585 30.328 61.5225 29.864 61.5225 29.288C61.5225 28.712 61.0585 28.248 60.4825 28.248C59.9225 28.248 59.4425 28.712 59.4425 29.288C59.4425 29.864 59.9225 30.328 60.4825 30.328ZM61.3305 39V31.272H59.6505V39H61.3305ZM65.1899 39V28.328H63.5099V39H65.1899ZM69.0493 39V28.328H67.3693V39H69.0493ZM73.8686 39.192C75.9486 39.192 77.0846 38.152 77.0846 36.792C77.0846 33.72 72.4126 34.744 72.4126 33.368C72.4126 32.824 72.9726 32.424 73.8526 32.424C74.8126 32.424 75.6766 32.824 76.1406 33.352L76.8446 32.168C76.1406 31.544 75.1486 31.08 73.8366 31.08C71.8846 31.08 70.7966 32.168 70.7966 33.432C70.7966 36.392 75.4686 35.304 75.4686 36.824C75.4686 37.432 74.9566 37.864 73.9486 37.864C72.9406 37.864 71.8686 37.336 71.3246 36.776L70.5566 37.992C71.3566 38.776 72.5566 39.192 73.8686 39.192ZM79.6075 30.328C80.1835 30.328 80.6475 29.864 80.6475 29.288C80.6475 28.712 80.1835 28.248 79.6075 28.248C79.0475 28.248 78.5675 28.712 78.5675 29.288C78.5675 29.864 79.0475 30.328 79.6075 30.328ZM80.4555 39V31.272H78.7755V39H80.4555ZM89.7549 39V28.328H88.0749V32.344C87.4509 31.528 86.5549 31.08 85.5949 31.08C83.5949 31.08 82.1549 32.648 82.1549 35.144C82.1549 37.688 83.6109 39.192 85.5949 39.192C86.5869 39.192 87.4829 38.712 88.0749 37.944V39H89.7549ZM86.0749 37.704C84.7469 37.704 83.8989 36.632 83.8989 35.144C83.8989 33.64 84.7469 32.568 86.0749 32.568C86.8749 32.568 87.6909 33.032 88.0749 33.608V36.68C87.6909 37.256 86.8749 37.704 86.0749 37.704ZM95.4998 39.192C96.7318 39.192 97.8678 38.808 98.6358 38.072L97.8678 36.968C97.3238 37.512 96.4278 37.816 95.6758 37.816C94.2198 37.816 93.3398 36.856 93.2118 35.688H99.1798V35.288C99.1798 32.856 97.6918 31.08 95.3718 31.08C93.0838 31.08 91.4518 32.888 91.4518 35.128C91.4518 37.576 93.1798 39.192 95.4998 39.192ZM97.5478 34.504H93.1957C93.2758 33.56 93.9318 32.456 95.3718 32.456C96.8918 32.456 97.5158 33.592 97.5478 34.504Z" fill="black"/>
<g filter="url(#filter1_d_523_7851)">
<path d="M74.5 70L65 56H91L74.5 70Z" fill="white"/>
</g>
<defs>
<filter id="filter0_d_523_7851" x="0" y="0" width="151" height="72" filterUnits="userSpaceOnUse" color-interpolation-filters="sRGB">
<feFlood flood-opacity="0" result="BackgroundImageFix"/>
<feColorMatrix in="SourceAlpha" type="matrix" values="0 0 0 0 0 0 0 0 0 0 0 0 0 0 0 0 0 0 127 0" result="hardAlpha"/>
<feOffset dy="2"/>
<feGaussianBlur stdDeviation="6"/>
<feComposite in2="hardAlpha" operator="out"/>
<feColorMatrix type="matrix" values="0 0 0 0 0 0 0 0 0 0 0 0 0 0 0 0 0 0 0.25 0"/>
<feBlend mode="normal" in2="BackgroundImageFix" result="effect1_dropShadow_523_7851"/>
<feBlend mode="normal" in="SourceGraphic" in2="effect1_dropShadow_523_7851" result="shape"/>
</filter>
<filter id="filter1_d_523_7851" x="61" y="56" width="34" height="22" filterUnits="userSpaceOnUse" color-interpolation-filters="sRGB">
<feFlood flood-opacity="0" result="BackgroundImageFix"/>
<feColorMatrix in="SourceAlpha" type="matrix" values="0 0 0 0 0 0 0 0 0 0 0 0 0 0 0 0 0 0 127 0" result="hardAlpha"/>
<feOffset dy="4"/>
<feGaussianBlur stdDeviation="2"/>
<feComposite in2="hardAlpha" operator="out"/>
<feColorMatrix type="matrix" values="0 0 0 0 0 0 0 0 0 0 0 0 0 0 0 0 0 0 0.12 0"/>
<feBlend mode="normal" in2="BackgroundImageFix" result="effect1_dropShadow_523_7851"/>
<feBlend mode="normal" in="SourceGraphic" in2="effect1_dropShadow_523_7851" result="shape"/>
</filter>
</defs>
</svg>
