<svg width="151" height="110" viewBox="0 0 151 110" fill="none" xmlns="http://www.w3.org/2000/svg">
<path d="M74.6237 72C71.0118 72.0046 67.549 73.5468 64.995 76.2884C62.441 79.03 61.0043 82.7471 61 86.6242C60.9957 89.7927 61.9598 92.8752 63.7446 95.3988C63.7446 95.3988 64.1161 95.9239 64.1768 95.9997L74.6237 109.225L85.0756 95.9931C85.1301 95.9226 85.5029 95.3988 85.5029 95.3988L85.5041 95.3948C87.2879 92.8723 88.2516 89.7912 88.2474 86.6242C88.2431 82.7471 86.8064 79.03 84.2524 76.2884C81.6984 73.5468 78.2356 72.0046 74.6237 72ZM74.6237 91.9422C73.6439 91.9422 72.6861 91.6303 71.8714 91.0459C71.0567 90.4616 70.4217 89.631 70.0467 88.6593C69.6718 87.6876 69.5737 86.6183 69.7648 85.5868C69.956 84.5552 70.4278 83.6076 71.1207 82.8639C71.8135 82.1202 72.6962 81.6137 73.6572 81.4085C74.6182 81.2033 75.6143 81.3086 76.5196 81.7111C77.4248 82.1136 78.1985 82.7952 78.7429 83.6698C79.2872 84.5443 79.5778 85.5725 79.5778 86.6242C79.5761 88.0341 79.0537 89.3857 78.125 90.3826C77.1962 91.3795 75.9371 91.9404 74.6237 91.9422Z" fill="#1B213A"/>
<circle cx="74.8151" cy="86.5831" r="6.14026" fill="white"/>
<g filter="url(#filter0_d_523_7891)">
<rect x="12" y="10" width="127" height="48" rx="6" fill="white"/>
</g>
<path d="M51.432 39V28.328H49.56V32.696H44.008V28.328H42.136V39H44.008V34.344H49.56V39H51.432ZM54.4825 30.328C55.0585 30.328 55.5225 29.864 55.5225 29.288C55.5225 28.712 55.0585 28.248 54.4825 28.248C53.9225 28.248 53.4425 28.712 53.4425 29.288C53.4425 29.864 53.9225 30.328 54.4825 30.328ZM55.3305 39V31.272H53.6505V39H55.3305ZM60.6459 42.136C62.5499 42.136 64.6139 41.384 64.6139 38.6V31.272H62.9339V32.344C62.3099 31.528 61.4299 31.08 60.4539 31.08C58.4699 31.08 57.0299 32.552 57.0299 35.048C57.0299 37.592 58.4859 39.016 60.4539 39.016C61.4619 39.016 62.3419 38.504 62.9339 37.736V38.664C62.9339 40.248 61.7499 40.76 60.6459 40.76C59.6219 40.76 58.8219 40.488 58.1979 39.768L57.4139 40.984C58.3579 41.848 59.3339 42.136 60.6459 42.136ZM60.9499 37.528C59.6219 37.528 58.7739 36.536 58.7739 35.048C58.7739 33.56 59.6219 32.568 60.9499 32.568C61.7339 32.568 62.5659 33.032 62.9339 33.608V36.488C62.5659 37.064 61.7339 37.528 60.9499 37.528ZM73.7031 39V33.528C73.7031 31.944 72.8711 31.08 71.2071 31.08C69.9911 31.08 68.9831 31.72 68.4711 32.328V28.328H66.7911V39H68.4711V33.608C68.8711 33.08 69.6071 32.568 70.4551 32.568C71.3991 32.568 72.0231 32.936 72.0231 34.136V39H73.7031ZM77.9649 39V32.744H79.5329V31.272H77.9649V30.84C77.9649 29.976 78.3809 29.544 79.0369 29.544C79.3249 29.544 79.5489 29.608 79.7089 29.72L80.0769 28.472C79.7409 28.28 79.2609 28.168 78.7329 28.168C77.3089 28.168 76.2849 29.112 76.2849 30.84V31.272H75.0049V32.744H76.2849V39H77.9649ZM81.6449 30.328C82.2209 30.328 82.6849 29.864 82.6849 29.288C82.6849 28.712 82.2209 28.248 81.6449 28.248C81.0849 28.248 80.6049 28.712 80.6049 29.288C80.6049 29.864 81.0849 30.328 81.6449 30.328ZM82.4929 39V31.272H80.8129V39H82.4929ZM88.2341 39.192C89.4661 39.192 90.6021 38.808 91.3701 38.072L90.6021 36.968C90.0581 37.512 89.1621 37.816 88.4101 37.816C86.9541 37.816 86.0741 36.856 85.9461 35.688H91.9141V35.288C91.9141 32.856 90.4261 31.08 88.1061 31.08C85.8181 31.08 84.1861 32.888 84.1861 35.128C84.1861 37.576 85.9141 39.192 88.2341 39.192ZM90.2821 34.504H85.9301C86.0101 33.56 86.6661 32.456 88.1061 32.456C89.6261 32.456 90.2501 33.592 90.2821 34.504ZM95.2524 39V28.328H93.5724V39H95.2524ZM104.552 39V28.328H102.872V32.344C102.248 31.528 101.352 31.08 100.392 31.08C98.3918 31.08 96.9518 32.648 96.9518 35.144C96.9518 37.688 98.4078 39.192 100.392 39.192C101.384 39.192 102.28 38.712 102.872 37.944V39H104.552ZM100.872 37.704C99.5438 37.704 98.6957 36.632 98.6957 35.144C98.6957 33.64 99.5438 32.568 100.872 32.568C101.672 32.568 102.488 33.032 102.872 33.608V36.68C102.488 37.256 101.672 37.704 100.872 37.704Z" fill="black"/>
<g filter="url(#filter1_d_523_7891)">
<path d="M74.5 70L65 56H91L74.5 70Z" fill="white"/>
</g>
<defs>
<filter id="filter0_d_523_7891" x="0" y="0" width="151" height="72" filterUnits="userSpaceOnUse" color-interpolation-filters="sRGB">
<feFlood flood-opacity="0" result="BackgroundImageFix"/>
<feColorMatrix in="SourceAlpha" type="matrix" values="0 0 0 0 0 0 0 0 0 0 0 0 0 0 0 0 0 0 127 0" result="hardAlpha"/>
<feOffset dy="2"/>
<feGaussianBlur stdDeviation="6"/>
<feComposite in2="hardAlpha" operator="out"/>
<feColorMatrix type="matrix" values="0 0 0 0 0 0 0 0 0 0 0 0 0 0 0 0 0 0 0.25 0"/>
<feBlend mode="normal" in2="BackgroundImageFix" result="effect1_dropShadow_523_7891"/>
<feBlend mode="normal" in="SourceGraphic" in2="effect1_dropShadow_523_7891" result="shape"/>
</filter>
<filter id="filter1_d_523_7891" x="61" y="56" width="34" height="22" filterUnits="userSpaceOnUse" color-interpolation-filters="sRGB">
<feFlood flood-opacity="0" result="BackgroundImageFix"/>
<feColorMatrix in="SourceAlpha" type="matrix" values="0 0 0 0 0 0 0 0 0 0 0 0 0 0 0 0 0 0 127 0" result="hardAlpha"/>
<feOffset dy="4"/>
<feGaussianBlur stdDeviation="2"/>
<feComposite in2="hardAlpha" operator="out"/>
<feColorMatrix type="matrix" values="0 0 0 0 0 0 0 0 0 0 0 0 0 0 0 0 0 0 0.12 0"/>
<feBlend mode="normal" in2="BackgroundImageFix" result="effect1_dropShadow_523_7891"/>
<feBlend mode="normal" in="SourceGraphic" in2="effect1_dropShadow_523_7891" result="shape"/>
</filter>
</defs>
</svg>
