<svg width="151" height="110" viewBox="0 0 151 110" fill="none" xmlns="http://www.w3.org/2000/svg">
<path d="M74.6237 72C71.0118 72.0046 67.549 73.5468 64.995 76.2884C62.441 79.03 61.0043 82.7471 61 86.6242C60.9957 89.7927 61.9598 92.8752 63.7446 95.3988C63.7446 95.3988 64.1161 95.9239 64.1768 95.9997L74.6237 109.225L85.0756 95.9931C85.1301 95.9226 85.5029 95.3988 85.5029 95.3988L85.5041 95.3948C87.2879 92.8723 88.2516 89.7912 88.2474 86.6242C88.2431 82.7471 86.8064 79.03 84.2524 76.2884C81.6984 73.5468 78.2356 72.0046 74.6237 72ZM74.6237 91.9422C73.6439 91.9422 72.6861 91.6303 71.8714 91.0459C71.0567 90.4616 70.4217 89.631 70.0467 88.6593C69.6718 87.6876 69.5737 86.6183 69.7648 85.5868C69.956 84.5552 70.4278 83.6076 71.1207 82.8639C71.8135 82.1202 72.6962 81.6137 73.6572 81.4085C74.6182 81.2033 75.6143 81.3086 76.5196 81.7111C77.4248 82.1136 78.1985 82.7952 78.7429 83.6698C79.2872 84.5443 79.5778 85.5725 79.5778 86.6242C79.5761 88.0341 79.0537 89.3857 78.125 90.3826C77.1962 91.3795 75.9371 91.9404 74.6237 91.9422Z" fill="#1B213A"/>
<circle cx="74.8148" cy="86.5831" r="6.14026" fill="white"/>
<g filter="url(#filter0_d_523_7841)">
<rect x="12" y="10" width="127" height="48" rx="6" fill="white"/>
</g>
<path d="M40.552 39V29.976H43.784V28.328H35.448V29.976H38.68V39H40.552ZM52.2344 39V33.528C52.2344 31.944 51.4024 31.08 49.7384 31.08C48.5224 31.08 47.5144 31.72 47.0024 32.328V28.328H45.3224V39H47.0024V33.608C47.4024 33.08 48.1384 32.568 48.9864 32.568C49.9304 32.568 50.5544 32.936 50.5544 34.136V39H52.2344ZM57.9841 39.192C59.2161 39.192 60.3521 38.808 61.1201 38.072L60.3521 36.968C59.8081 37.512 58.9121 37.816 58.1601 37.816C56.7041 37.816 55.8241 36.856 55.6961 35.688H61.6641V35.288C61.6641 32.856 60.1761 31.08 57.8561 31.08C55.5681 31.08 53.9361 32.888 53.9361 35.128C53.9361 37.576 55.6641 39.192 57.9841 39.192ZM60.0321 34.504H55.6801C55.7601 33.56 56.4161 32.456 57.8561 32.456C59.3761 32.456 60.0001 33.592 60.0321 34.504ZM76.7758 39V28.328H74.9038V32.696H69.3518V28.328H67.4798V39H69.3518V34.344H74.9038V39H76.7758ZM82.4823 39.192C84.9623 39.192 86.4663 37.352 86.4663 35.128C86.4663 32.92 84.9623 31.08 82.4823 31.08C80.0343 31.08 78.5143 32.92 78.5143 35.128C78.5143 37.352 80.0343 39.192 82.4823 39.192ZM82.4823 37.704C81.0583 37.704 80.2582 36.504 80.2582 35.128C80.2582 33.768 81.0583 32.568 82.4823 32.568C83.9223 32.568 84.7223 33.768 84.7223 35.128C84.7223 36.504 83.9223 37.704 82.4823 37.704ZM89.8461 39V28.328H88.1661V39H89.8461ZM93.7055 39V28.328H92.0255V39H93.7055ZM96.7169 30.328C97.2929 30.328 97.7569 29.864 97.7569 29.288C97.7569 28.712 97.2929 28.248 96.7169 28.248C96.1569 28.248 95.6769 28.712 95.6769 29.288C95.6769 29.864 96.1569 30.328 96.7169 30.328ZM97.5649 39V31.272H95.8849V39H97.5649ZM103.312 39.192C104.544 39.192 105.68 38.808 106.448 38.072L105.68 36.968C105.136 37.512 104.24 37.816 103.488 37.816C102.032 37.816 101.152 36.856 101.024 35.688H106.992V35.288C106.992 32.856 105.504 31.08 103.184 31.08C100.896 31.08 99.2643 32.888 99.2643 35.128C99.2643 37.576 100.992 39.192 103.312 39.192ZM105.36 34.504H101.008C101.088 33.56 101.744 32.456 103.184 32.456C104.704 32.456 105.328 33.592 105.36 34.504ZM111.291 39.192C113.371 39.192 114.507 38.152 114.507 36.792C114.507 33.72 109.835 34.744 109.835 33.368C109.835 32.824 110.395 32.424 111.275 32.424C112.235 32.424 113.099 32.824 113.563 33.352L114.267 32.168C113.563 31.544 112.571 31.08 111.259 31.08C109.307 31.08 108.219 32.168 108.219 33.432C108.219 36.392 112.891 35.304 112.891 36.824C112.891 37.432 112.379 37.864 111.371 37.864C110.363 37.864 109.291 37.336 108.747 36.776L107.979 37.992C108.779 38.776 109.979 39.192 111.291 39.192Z" fill="black"/>
<g filter="url(#filter1_d_523_7841)">
<path d="M74.5 70L65 56H91L74.5 70Z" fill="white"/>
</g>
<defs>
<filter id="filter0_d_523_7841" x="0" y="0" width="151" height="72" filterUnits="userSpaceOnUse" color-interpolation-filters="sRGB">
<feFlood flood-opacity="0" result="BackgroundImageFix"/>
<feColorMatrix in="SourceAlpha" type="matrix" values="0 0 0 0 0 0 0 0 0 0 0 0 0 0 0 0 0 0 127 0" result="hardAlpha"/>
<feOffset dy="2"/>
<feGaussianBlur stdDeviation="6"/>
<feComposite in2="hardAlpha" operator="out"/>
<feColorMatrix type="matrix" values="0 0 0 0 0 0 0 0 0 0 0 0 0 0 0 0 0 0 0.25 0"/>
<feBlend mode="normal" in2="BackgroundImageFix" result="effect1_dropShadow_523_7841"/>
<feBlend mode="normal" in="SourceGraphic" in2="effect1_dropShadow_523_7841" result="shape"/>
</filter>
<filter id="filter1_d_523_7841" x="61" y="56" width="34" height="22" filterUnits="userSpaceOnUse" color-interpolation-filters="sRGB">
<feFlood flood-opacity="0" result="BackgroundImageFix"/>
<feColorMatrix in="SourceAlpha" type="matrix" values="0 0 0 0 0 0 0 0 0 0 0 0 0 0 0 0 0 0 127 0" result="hardAlpha"/>
<feOffset dy="4"/>
<feGaussianBlur stdDeviation="2"/>
<feComposite in2="hardAlpha" operator="out"/>
<feColorMatrix type="matrix" values="0 0 0 0 0 0 0 0 0 0 0 0 0 0 0 0 0 0 0.12 0"/>
<feBlend mode="normal" in2="BackgroundImageFix" result="effect1_dropShadow_523_7841"/>
<feBlend mode="normal" in="SourceGraphic" in2="effect1_dropShadow_523_7841" result="shape"/>
</filter>
</defs>
</svg>
